<?xml version="1.0" standalone="no"?>
<!DOCTYPE svg PUBLIC "-//W3C//DTD SVG 20010904//EN"
 "http://www.w3.org/TR/2001/REC-SVG-20010904/DTD/svg10.dtd">
<svg version="1.0" xmlns="http://www.w3.org/2000/svg"
 width="500.000000pt" height="500.000000pt" viewBox="0 0 500.000000 500.000000"
 preserveAspectRatio="xMidYMid meet">

<g transform="translate(0.000000,500.000000) scale(0.100000,-0.100000)"
fill="#000000" stroke="none">
<path d="M3216 2771 c-3 -4 6 -6 19 -3 14 2 25 6 25 8 0 8 -39 4 -44 -5z"/>
<path d="M3325 2770 c3 -5 8 -10 11 -10 2 0 4 5 4 10 0 6 -5 10 -11 10 -5 0
-7 -4 -4 -10z"/>
<path d="M3718 2758 c-20 -11 -41 -30 -46 -42 -9 -18 -11 -16 -11 17 l-1 37
-57 0 -58 0 -3 -220 -4 -220 61 0 61 0 0 136 0 136 34 34 c24 24 43 34 65 34
31 0 31 0 31 55 0 64 -11 69 -72 33z"/>
<path d="M3916 2760 c-54 -27 -71 -45 -95 -96 -25 -53 -28 -164 -7 -215 33
-77 98 -120 186 -122 54 -2 61 1 94 32 l36 35 0 -32 c0 -31 1 -32 45 -32 l45
0 0 133 c0 152 -9 194 -52 243 -64 73 -169 95 -252 54z m142 -84 c40 -21 57
-60 57 -132 0 -48 -5 -67 -20 -85 -69 -77 -171 -44 -189 61 -9 54 9 111 44
143 34 30 67 34 108 13z"/>
<path d="M2993 2763 c9 -2 23 -2 30 0 6 3 -1 5 -18 5 -16 0 -22 -2 -12 -5z"/>
<path d="M3370 2745 c0 -8 -5 -15 -11 -15 -5 0 -7 -4 -4 -10 4 -7 -3 -7 -20 0
-34 13 -58 13 -50 0 5 -9 -23 -15 -47 -11 -5 0 -8 -3 -8 -9 0 -5 -9 -10 -21
-10 -13 0 -19 -5 -16 -12 3 -9 -5 -13 -22 -12 -35 2 -62 14 -55 25 10 17 -9 9
-22 -8 -9 -14 -10 -21 -1 -32 9 -11 9 -13 0 -8 -19 12 -33 -26 -33 -91 0 -131
76 -216 205 -229 61 -6 115 9 164 45 l33 25 -29 28 -29 29 -41 -20 c-50 -24
-69 -25 -116 -5 -30 12 -77 60 -77 79 0 3 71 7 158 8 l157 3 3 49 c4 57 -40
161 -64 152 -8 -3 -11 0 -7 10 3 8 -1 14 -11 14 -9 0 -16 5 -16 10 0 6 -4 10
-10 10 -5 0 -10 -7 -10 -15z m-16 -89 c62 -58 53 -66 -74 -66 -60 0 -110 3
-110 6 0 9 22 48 34 59 46 46 103 46 150 1z m-237 8 c-3 -3 -12 -4 -19 -1 -8
3 -5 6 6 6 11 1 17 -2 13 -5z"/>
<path d="M3155 2728 c11 -6 23 -16 27 -22 5 -8 8 -7 8 1 0 7 -9 17 -19 23 -27
14 -41 12 -16 -2z"/>
<path d="M3018 2709 c-2 -6 -22 -11 -45 -11 -25 0 -43 -4 -46 -12 -6 -14 -47
-14 -119 1 -27 6 -48 6 -48 2 0 -5 13 -9 29 -9 l29 0 4 -127 c5 -185 32 -223
158 -223 l60 0 0 44 c0 46 -11 56 -67 56 -23 0 -35 23 -39 75 -6 92 -6 153 0
163 4 7 27 12 52 12 37 0 44 3 44 20 0 22 -6 26 -12 9z m-164 -54 c-4 -8 -8
-15 -10 -15 -2 0 -4 7 -4 15 0 8 4 15 10 15 5 0 7 -7 4 -15z"/>
<path d="M3120 2716 c0 -2 9 -6 20 -9 11 -3 18 -1 14 4 -5 9 -34 13 -34 5z"/>
<path d="M2644 2676 c-3 -15 -9 -24 -13 -19 -3 4 -12 9 -20 11 -12 3 -12 1 0
-14 13 -16 12 -16 -11 -4 l-25 13 20 -23 c16 -17 20 -36 20 -89 0 -57 -3 -70
-25 -92 -37 -39 -84 -52 -124 -35 -52 22 -76 64 -76 134 0 34 5 64 10 67 6 4
8 11 5 16 -4 5 -1 9 4 9 6 0 11 5 11 10 0 6 -7 7 -17 1 -43 -21 -86 -30 -103
-21 -15 8 -18 -3 -23 -128 -9 -179 -8 -182 54 -182 48 0 49 1 49 31 l0 31 35
-30 c57 -50 150 -54 223 -10 69 42 110 151 90 243 -6 28 -15 56 -20 63 -14 17
-31 15 -25 -2 4 -10 1 -13 -9 -9 -13 5 -13 8 1 23 8 9 15 21 15 26 0 5 -5 2
-10 -6 -9 -13 -11 -13 -19 -1 -8 12 -11 9 -17 -13z"/>
<path d="M3131 2693 c-1 -18 13 -23 29 -11 12 8 12 9 -2 5 -9 -3 -19 -1 -22 6
-3 9 -5 9 -5 0z"/>
<path d="M2055 2650 c3 -5 8 -10 11 -10 2 0 4 5 4 10 0 6 -5 10 -11 10 -5 0
-7 -4 -4 -10z"/>
<path d="M2155 2649 c5 -13 -2 -18 -30 -23 -19 -4 -40 -4 -46 0 -7 4 -9 -1 -4
-15 6 -20 4 -21 -95 -21 -56 0 -99 -4 -96 -8 3 -5 24 -7 47 -6 22 1 37 -2 33
-6 -14 -12 -94 -17 -94 -5 0 5 -4 4 -8 -3 -5 -7 -23 -11 -42 -10 -19 1 -35 -3
-37 -9 -3 -7 -11 -9 -19 -6 -39 15 6 -112 55 -155 84 -75 220 -81 300 -14 l32
27 -29 28 -29 27 -47 -21 c-70 -31 -144 -9 -176 51 -22 42 -9 45 157 42 l156
-3 -6 62 c-3 34 -10 66 -17 73 -8 8 -10 7 -5 -5z"/>
<path d="M1560 2570 c0 -5 5 -10 11 -10 5 0 7 5 4 10 -3 6 -8 10 -11 10 -2 0
-4 -4 -4 -10z"/>
<path d="M1649 2575 c-1 -3 -3 -9 -4 -15 -1 -5 -3 -14 -4 -20 0 -5 -6 -10 -12
-10 -5 0 -8 4 -4 9 3 5 1 12 -4 15 -12 8 -42 -4 -36 -14 3 -4 -2 -10 -10 -13
-9 -4 -12 -1 -8 9 3 7 1 14 -5 14 -6 0 -14 -15 -17 -32 -4 -18 -10 -37 -12
-42 -8 -12 -23 15 -23 40 0 11 -7 29 -16 40 -15 19 -15 19 -6 -1 12 -26 5 -45
-14 -38 -8 3 -14 0 -14 -5 0 -10 -31 -9 -49 2 -5 3 6 -36 24 -87 l32 -92 58 2
c35 1 62 7 67 15 7 11 43 117 68 201 5 16 5 27 -1 27 -5 0 -10 -2 -10 -5z"/>
<path d="M1288 2485 l4 -20 -16 20 c-10 11 -15 15 -12 10 2 -6 1 -17 -5 -25
-6 -11 -9 -12 -9 -2 0 8 -5 10 -12 6 -8 -5 -9 -2 -4 12 6 16 5 16 -13 -3 -24
-25 -28 -42 -7 -24 11 9 15 8 20 -4 3 -10 2 -13 -5 -10 -5 4 -17 1 -26 -7 -12
-9 -15 -9 -9 0 5 8 0 12 -13 12 -27 0 -32 1 -57 11 -21 7 -21 6 -11 -27 6 -19
14 -34 19 -34 5 0 7 -4 4 -9 -4 -5 -2 -21 4 -35 9 -24 14 -26 69 -26 65 0 55
-9 92 89 6 17 8 35 4 40 -3 6 -2 11 3 11 5 0 12 8 15 19 3 14 -1 18 -18 17
-16 -1 -21 -6 -17 -21z m-133 -55 c3 -5 1 -10 -4 -10 -6 0 -11 5 -11 10 0 6 2
10 4 10 3 0 8 -4 11 -10z"/>
<path d="M1530 2214 c-36 -12 -100 -26 -142 -30 -43 -3 -75 -10 -73 -15 6 -9
-35 -34 -51 -31 -17 3 -27 -30 -12 -40 22 -13 199 -9 258 7 66 17 130 45 130
56 0 14 -33 79 -39 78 -3 -1 -35 -12 -71 -25z"/>
</g>
</svg>
